<?xml version="1.0" encoding="UTF-8"?>
<!DOCTYPE svg PUBLIC "-//W3C//DTD SVG 1.1//EN" "http://www.w3.org/Graphics/SVG/1.1/DTD/svg11.dtd">
<svg xmlns="http://www.w3.org/2000/svg" version="1.1" width="109px" height="95px" style="shape-rendering:geometricPrecision; text-rendering:geometricPrecision; image-rendering:optimizeQuality; fill-rule:evenodd; clip-rule:evenodd" xmlns:xlink="http://www.w3.org/1999/xlink">
<g><path style="opacity:0.765" fill="#95635b" d="M 70.5,22.5 C 70.5,22.8333 70.5,23.1667 70.5,23.5C 65.4004,22.0213 60.4004,22.3546 55.5,24.5C 53.8122,26.8545 51.8122,28.8545 49.5,30.5C 51.562,23.9448 56.062,20.6115 63,20.5C 65.4908,21.2202 67.9908,21.8869 70.5,22.5 Z"/></g>
<g><path style="opacity:0.929" fill="#688061" d="M 83.5,26.5 C 82.8333,25.1667 82.1667,25.1667 81.5,26.5C 79.5233,24.8119 77.5233,24.4786 75.5,25.5C 74.3951,24.3995 73.0618,23.7329 71.5,23.5C 71.1667,23.5 70.8333,23.5 70.5,23.5C 70.5,23.1667 70.5,22.8333 70.5,22.5C 73.3971,22.3187 76.2305,22.6521 79,23.5C 81.9244,19.246 85.9244,16.5793 91,15.5C 94.3012,15.7852 95.6345,17.4519 95,20.5C 90.4789,21.2777 86.6456,23.2777 83.5,26.5 Z"/></g>
<g><path style="opacity:1" fill="#6f311c" d="M 71.5,23.5 C 73.0618,23.7329 74.3951,24.3995 75.5,25.5C 77.1667,26.5 78.5,27.8333 79.5,29.5C 77.1838,28.1944 74.8505,26.8611 72.5,25.5C 72.1667,24.8333 71.8333,24.1667 71.5,23.5 Z"/></g>
<g><path style="opacity:1" fill="#7ca973" d="M 75.5,25.5 C 77.5233,24.4786 79.5233,24.8119 81.5,26.5C 81.7373,27.791 81.404,28.791 80.5,29.5C 80.1667,29.5 79.8333,29.5 79.5,29.5C 78.5,27.8333 77.1667,26.5 75.5,25.5 Z"/></g>
<g><path style="opacity:1" fill="#d04145" d="M 70.5,23.5 C 70.8333,23.5 71.1667,23.5 71.5,23.5C 71.8333,24.1667 72.1667,24.8333 72.5,25.5C 70.4352,25.4828 68.4352,25.1495 66.5,24.5C 63.1016,24.1796 59.7683,24.513 56.5,25.5C 53.6356,29.5571 50.969,33.5571 48.5,37.5C 49.2186,35.2362 49.552,32.9029 49.5,30.5C 51.8122,28.8545 53.8122,26.8545 55.5,24.5C 60.4004,22.3546 65.4004,22.0213 70.5,23.5 Z"/></g>
<g><path style="opacity:1" fill="#59654d" d="M 83.5,26.5 C 86.0366,30.3949 87.0366,34.7282 86.5,39.5C 85.049,35.9471 83.049,32.6138 80.5,29.5C 81.404,28.791 81.7373,27.791 81.5,26.5C 82.1667,25.1667 82.8333,25.1667 83.5,26.5 Z"/></g>
<g><path style="opacity:1" fill="#f43a39" d="M 66.5,24.5 C 67.0478,26.5323 68.3812,27.5323 70.5,27.5C 71.2919,40.2051 67.2919,51.0385 58.5,60C 49.0094,67.8107 38.3427,73.4774 26.5,77C 22.2028,78.0915 17.8695,78.4248 13.5,78C 15.7221,75.7621 18.0554,73.9287 20.5,72.5C 24.5011,69.8248 28.1677,66.8248 31.5,63.5C 34.7901,61.8764 37.4567,59.5431 39.5,56.5C 42.7774,53.8987 44.7774,50.5654 45.5,46.5C 45.6896,43.145 46.6896,40.145 48.5,37.5C 50.969,33.5571 53.6356,29.5571 56.5,25.5C 59.7683,24.513 63.1016,24.1796 66.5,24.5 Z"/></g>
<g><path style="opacity:1" fill="#743d34" d="M 79.5,29.5 C 79.8333,29.5 80.1667,29.5 80.5,29.5C 83.049,32.6138 85.049,35.9471 86.5,39.5C 89.0863,45.1792 88.753,50.5125 85.5,55.5C 84.8333,55.5 84.1667,55.5 83.5,55.5C 86.7985,47.1699 85.7985,39.5032 80.5,32.5C 79.8902,31.609 79.5569,30.609 79.5,29.5 Z"/></g>
<g><path style="opacity:0.855" fill="#965e58" d="M 49.5,30.5 C 49.552,32.9029 49.2186,35.2362 48.5,37.5C 46.6896,40.145 45.6896,43.145 45.5,46.5C 44.31,48.8693 42.6433,50.8693 40.5,52.5C 43.511,45.1245 46.511,37.7911 49.5,30.5 Z"/></g>
<g><path style="opacity:1" fill="#ca4141" d="M 45.5,46.5 C 44.7774,50.5654 42.7774,53.8987 39.5,56.5C 39.8333,55.1667 40.1667,53.8333 40.5,52.5C 42.6433,50.8693 44.31,48.8693 45.5,46.5 Z"/></g>
<g><path style="opacity:0.949" fill="#8e524c" d="M 40.5,52.5 C 40.1667,53.8333 39.8333,55.1667 39.5,56.5C 37.4567,59.5431 34.7901,61.8764 31.5,63.5C 34.2714,59.61 37.2714,55.9433 40.5,52.5 Z"/></g>
<g><path style="opacity:1" fill="#865651" d="M 83.5,55.5 C 84.1667,55.5 84.8333,55.5 85.5,55.5C 81.8333,63.8333 75.8333,69.8333 67.5,73.5C 67.8807,72.0689 68.8807,71.2355 70.5,71C 70.1667,70.6667 69.8333,70.3333 69.5,70C 72.2287,69.4339 74.2287,67.9339 75.5,65.5C 76.4822,64.8592 77.4822,64.1925 78.5,63.5C 80.4908,61.0149 82.1574,58.3483 83.5,55.5 Z"/></g>
<g><path style="opacity:1" fill="#9a2428" d="M 75.5,65.5 C 74.2287,67.9339 72.2287,69.4339 69.5,70C 69.8333,70.3333 70.1667,70.6667 70.5,71C 68.8807,71.2355 67.8807,72.0689 67.5,73.5C 66.1667,73.5 64.8333,73.5 63.5,73.5C 64.292,71.7428 65.6253,70.4095 67.5,69.5C 68.6888,68.5713 70.0222,68.238 71.5,68.5C 71.5,67.5 71.5,66.5 71.5,65.5C 72.8333,65.5 74.1667,65.5 75.5,65.5 Z"/></g>
<g><path style="opacity:1" fill="#e02c2a" d="M 66.5,24.5 C 68.4352,25.1495 70.4352,25.4828 72.5,25.5C 74.8505,26.8611 77.1838,28.1944 79.5,29.5C 79.5569,30.609 79.8902,31.609 80.5,32.5C 82.4571,47.4489 77.4571,59.6156 65.5,69C 49.5353,78.6435 32.202,82.3101 13.5,80C 12.2427,77.9235 12.576,76.0902 14.5,74.5C 16.3024,73.5418 18.3024,72.8751 20.5,72.5C 18.0554,73.9287 15.7221,75.7621 13.5,78C 17.8695,78.4248 22.2028,78.0915 26.5,77C 38.3427,73.4774 49.0094,67.8107 58.5,60C 67.2919,51.0385 71.2919,40.2051 70.5,27.5C 68.3812,27.5323 67.0478,26.5323 66.5,24.5 Z"/></g>
<g><path style="opacity:1" fill="#aa211f" d="M 80.5,32.5 C 85.7985,39.5032 86.7985,47.1699 83.5,55.5C 82.1574,58.3483 80.4908,61.0149 78.5,63.5C 77.4822,64.1925 76.4822,64.8592 75.5,65.5C 74.1667,65.5 72.8333,65.5 71.5,65.5C 71.5,66.5 71.5,67.5 71.5,68.5C 70.0222,68.238 68.6888,68.5713 67.5,69.5C 65.6253,70.4095 64.292,71.7428 63.5,73.5C 56.4415,76.7702 49.1082,79.4368 41.5,81.5C 32.5082,82.2742 23.5082,82.4408 14.5,82C 11.3782,80.2451 10.7116,77.7451 12.5,74.5C 13.1667,74.5 13.8333,74.5 14.5,74.5C 12.576,76.0902 12.2427,77.9235 13.5,80C 32.202,82.3101 49.5353,78.6435 65.5,69C 77.4571,59.6156 82.4571,47.4489 80.5,32.5 Z"/></g>
<g><path style="opacity:0.973" fill="#925953" d="M 31.5,63.5 C 28.1677,66.8248 24.5011,69.8248 20.5,72.5C 18.3024,72.8751 16.3024,73.5418 14.5,74.5C 13.8333,74.5 13.1667,74.5 12.5,74.5C 18.9568,71.103 25.2902,67.4363 31.5,63.5 Z"/></g>
<g><path style="opacity:0.973" fill="#905852" d="M 63.5,73.5 C 64.8333,73.5 66.1667,73.5 67.5,73.5C 59.5629,78.3258 50.8962,81.3258 41.5,82.5C 41.5,82.1667 41.5,81.8333 41.5,81.5C 49.1082,79.4368 56.4415,76.7702 63.5,73.5 Z"/></g>
<g><path style="opacity:0.976" fill="#8a5653" d="M 12.5,74.5 C 10.7116,77.7451 11.3782,80.2451 14.5,82C 23.5082,82.4408 32.5082,82.2742 41.5,81.5C 41.5,81.8333 41.5,82.1667 41.5,82.5C 32.6222,84.3266 23.6222,84.8266 14.5,84C 8.89604,81.4625 8.22938,78.2958 12.5,74.5 Z"/></g>
</svg>
