<?xml version="1.0" standalone="no"?>
<!DOCTYPE svg PUBLIC "-//W3C//DTD SVG 20010904//EN"
 "http://www.w3.org/TR/2001/REC-SVG-20010904/DTD/svg10.dtd">
<svg version="1.0" xmlns="http://www.w3.org/2000/svg"
 width="109.000000pt" height="95.000000pt" viewBox="0 0 109.000000 95.000000"
 preserveAspectRatio="xMidYMid meet">

<g transform="translate(0.000000,95.000000) scale(0.100000,-0.100000)"
fill="#000000" stroke="none">
<path d="M864 761 c-18 -11 -38 -28 -45 -39 -15 -20 -14 -20 -155 3 -56 10
-108 -9 -139 -50 -14 -18 -38 -71 -54 -118 -58 -170 -130 -253 -289 -331 -60
-30 -72 -40 -72 -61 0 -47 36 -58 173 -53 277 12 498 118 573 275 22 48 25 64
19 107 -14 98 -23 151 -30 171 -8 26 22 55 67 64 24 5 33 12 33 26 0 28 -42
31 -81 6z m72 0 c-3 -4 -23 -11 -45 -15 -25 -4 -46 -15 -56 -29 -10 -12 -15
-15 -13 -7 6 22 67 60 95 60 13 0 22 -4 19 -9z m-132 -74 c11 -8 17 -19 15
-25 -2 -6 -17 0 -34 14 -32 25 -14 35 19 11z"/>
</g>
</svg>
